<?xml version="1.0" encoding="UTF-8" standalone="yes"?><svg xmlns="http://www.w3.org/2000/svg" xmlns:xlink="http://www.w3.org/1999/xlink" height="205pt" style="width:398px;height:205px;" version="1.1" viewBox="0 0 398 205" width="398pt"><defs><filter height="300%" id="f1" width="300%" x="-1" y="-1"><feGaussianBlur result="blurOut" stdDeviation="2.0"/><feColorMatrix in="blurOut" result="blurOut2" type="matrix" values="0 0 0 0 0 0 0 0 0 0 0 0 0 0 0 0 0 0 .4 0"/><feOffset dx="4.0" dy="4.0" in="blurOut2" result="blurOut3"/><feBlend in="SourceGraphic" in2="blurOut3" mode="normal"/></filter></defs><g><rect fill="#FEFECE" filter="url(#f1)" height="188.7925" style="stroke: #A80036; stroke-width: 1.5;" width="383" x="6" y="8"/><ellipse cx="174.75" cy="24" fill="#ADD1B2" rx="11" ry="11" style="stroke: #A80036; stroke-width: 1.0;"/><path d="M178.5781,29.6563 Q176.7031,30.3125 174.8906,30.3125 Q172.2969,30.3125 170.7109,28.5313 Q169.125,26.75 169.125,23.8438 Q169.125,21.1563 170.5313,19.3906 Q171.3906,18.3125 172.5078,17.8594 Q173.625,17.4063 175.4063,17.4063 Q177.125,17.4063 178.5781,17.7656 L178.5781,19.75 Q176.7031,19.0469 175.4531,19.0469 Q173.7656,19.0469 172.7734,20.3672 Q171.7813,21.6875 171.7813,23.9219 Q171.7813,25.9688 172.8203,27.2656 Q173.8594,28.5625 175.5,28.5625 Q176.8906,28.5625 178.5781,27.7813 L178.5781,29.6563 Z "/><text fill="#000000" font-family="sans-serif" font-size="12" lengthAdjust="spacingAndGlyphs" textLength="37" x="195.25" y="28.4209">Grools</text><line style="stroke: #A80036; stroke-width: 1.5;" x1="7" x2="388" y1="40" y2="40"/><rect fill="none" height="6" style="stroke: #C82930; stroke-width: 1.0;" width="6" x="14" y="48.8997"/><text fill="#000000" font-family="sans-serif" font-size="11" lengthAdjust="spacingAndGlyphs" textLength="113" x="26" y="54.4521">kSession : KieSession</text><rect fill="none" height="6" style="stroke: #C82930; stroke-width: 1.0;" width="6" x="14" y="61.699"/><text fill="#000000" font-family="sans-serif" font-size="11" lengthAdjust="spacingAndGlyphs" textLength="80" x="26" y="67.2515">kbase : KieBase</text><rect fill="none" height="6" style="stroke: #C82930; stroke-width: 1.0;" width="6" x="14" y="74.4983"/><text fill="#000000" font-family="sans-serif" font-size="11" lengthAdjust="spacingAndGlyphs" textLength="68" x="26" y="80.0508">mode : Mode</text><line style="stroke: #A80036; stroke-width: 1.5;" x1="7" x2="388" y1="86.3979" y2="86.3979"/><ellipse cx="17" cy="98.2976" fill="#84BE84" rx="3" ry="3" style="stroke: #038048; stroke-width: 1.0;"/><text fill="#000000" font-family="sans-serif" font-size="11" lengthAdjust="spacingAndGlyphs" textLength="44" x="26" y="100.8501">Grools()</text><ellipse cx="17" cy="111.0969" fill="#84BE84" rx="3" ry="3" style="stroke: #038048; stroke-width: 1.0;"/><text fill="#000000" font-family="sans-serif" font-size="11" lengthAdjust="spacingAndGlyphs" textLength="139" x="26" y="113.6494">getKSession() : KieSession</text><ellipse cx="17" cy="123.8962" fill="#84BE84" rx="3" ry="3" style="stroke: #038048; stroke-width: 1.0;"/><text fill="#000000" font-family="sans-serif" font-size="11" lengthAdjust="spacingAndGlyphs" textLength="222" x="26" y="126.4487">getStatistics(): List&lt;KnowledgeStatistics&gt;</text><ellipse cx="17" cy="136.6956" fill="#84BE84" rx="3" ry="3" style="stroke: #038048; stroke-width: 1.0;"/><text fill="#000000" font-family="sans-serif" font-size="11" lengthAdjust="spacingAndGlyphs" textLength="319" x="26" y="139.248">getStatistics( final String knowledgeId ): KnowledgeStatistics</text><ellipse cx="17" cy="149.4949" fill="#84BE84" rx="3" ry="3" style="stroke: #038048; stroke-width: 1.0;"/><text fill="#000000" font-family="sans-serif" font-size="11" lengthAdjust="spacingAndGlyphs" textLength="357" x="26" y="152.0474">getSubKnowledge( final Knowledge knowledge ) : List&lt;Knowledge&gt;</text><ellipse cx="17" cy="162.2942" fill="#84BE84" rx="3" ry="3" style="stroke: #038048; stroke-width: 1.0;"/><text fill="#000000" font-family="sans-serif" font-size="11" lengthAdjust="spacingAndGlyphs" textLength="246" x="26" y="164.8467">getUnknownKnowledges( ) : List&lt;Knowledge&gt;</text><ellipse cx="17" cy="175.0935" fill="#84BE84" rx="3" ry="3" style="stroke: #038048; stroke-width: 1.0;"/><text fill="#000000" font-family="sans-serif" font-size="11" lengthAdjust="spacingAndGlyphs" textLength="298" x="26" y="177.646">getMissingKnowledgesConclusion( ) : List&lt;Knowledge&gt;</text><ellipse cx="17" cy="187.8928" fill="#84BE84" rx="3" ry="3" style="stroke: #038048; stroke-width: 1.0;"/><text fill="#000000" font-family="sans-serif" font-size="11" lengthAdjust="spacingAndGlyphs" textLength="171" x="26" y="190.4453">insert( final Object object) : void</text></g></svg>