<?xml version="1.0" encoding="UTF-8" standalone="yes"?><svg xmlns="http://www.w3.org/2000/svg" xmlns:xlink="http://www.w3.org/1999/xlink" height="69pt" style="width:112px;height:69px;" version="1.1" viewBox="0 0 112 69" width="112pt"><defs><filter height="300%" id="f1" width="300%" x="-1" y="-1"><feGaussianBlur result="blurOut" stdDeviation="2.0"/><feColorMatrix in="blurOut" result="blurOut2" type="matrix" values="0 0 0 0 0 0 0 0 0 0 0 0 0 0 0 0 0 0 .4 0"/><feOffset dx="4.0" dy="4.0" in="blurOut2" result="blurOut3"/><feBlend in="SourceGraphic" in2="blurOut3" mode="normal"/></filter></defs><g><rect fill="#FEFECE" filter="url(#f1)" height="52.7993" style="stroke: #A80036; stroke-width: 1.5;" width="97" x="6" y="8"/><ellipse cx="35.85" cy="24" fill="#ADD1B2" rx="11" ry="11" style="stroke: #A80036; stroke-width: 1.0;"/><path d="M39.6781,29.6563 Q37.8031,30.3125 35.9906,30.3125 Q33.3969,30.3125 31.8109,28.5313 Q30.225,26.75 30.225,23.8438 Q30.225,21.1563 31.6313,19.3906 Q32.4906,18.3125 33.6078,17.8594 Q34.725,17.4063 36.5063,17.4063 Q38.225,17.4063 39.6781,17.7656 L39.6781,19.75 Q37.8031,19.0469 36.5531,19.0469 Q34.8656,19.0469 33.8734,20.3672 Q32.8813,21.6875 32.8813,23.9219 Q32.8813,25.9688 33.9203,27.2656 Q34.9594,28.5625 36.6,28.5625 Q37.9906,28.5625 39.6781,27.7813 L39.6781,29.6563 Z "/><text fill="#000000" font-family="sans-serif" font-size="12" lengthAdjust="spacingAndGlyphs" textLength="32" x="53.15" y="28.4209">Mode</text><line style="stroke: #A80036; stroke-width: 1.5;" x1="7" x2="102" y1="40" y2="40"/><rect fill="none" height="6" style="stroke: #C82930; stroke-width: 1.0;" width="6" x="14" y="48.8997"/><text fill="#000000" font-family="sans-serif" font-size="11" lengthAdjust="spacingAndGlyphs" textLength="71" x="26" y="54.4521">mode : String</text></g></svg>