<?xml version="1.0" encoding="UTF-8" standalone="yes"?><svg xmlns="http://www.w3.org/2000/svg" xmlns:xlink="http://www.w3.org/1999/xlink" height="154pt" style="width:527px;height:154px;" version="1.1" viewBox="0 0 527 154" width="527pt"><defs><filter height="300%" id="f1" width="300%" x="-1" y="-1"><feGaussianBlur result="blurOut" stdDeviation="2.0"/><feColorMatrix in="blurOut" result="blurOut2" type="matrix" values="0 0 0 0 0 0 0 0 0 0 0 0 0 0 0 0 0 0 .4 0"/><feOffset dx="4.0" dy="4.0" in="blurOut2" result="blurOut3"/><feBlend in="SourceGraphic" in2="blurOut3" mode="normal"/></filter></defs><g><rect fill="#FEFECE" filter="url(#f1)" height="137.5952" style="stroke: #A80036; stroke-width: 1.5;" width="512" x="6" y="8"/><ellipse cx="198.75" cy="24" fill="#ADD1B2" rx="11" ry="11" style="stroke: #A80036; stroke-width: 1.0;"/><path d="M202.5781,29.6563 Q200.7031,30.3125 198.8906,30.3125 Q196.2969,30.3125 194.7109,28.5313 Q193.125,26.75 193.125,23.8438 Q193.125,21.1563 194.5313,19.3906 Q195.3906,18.3125 196.5078,17.8594 Q197.625,17.4063 199.4063,17.4063 Q201.125,17.4063 202.5781,17.7656 L202.5781,19.75 Q200.7031,19.0469 199.4531,19.0469 Q197.7656,19.0469 196.7734,20.3672 Q195.7813,21.6875 195.7813,23.9219 Q195.7813,25.9688 196.8203,27.2656 Q197.8594,28.5625 199.5,28.5625 Q200.8906,28.5625 202.5781,27.7813 L202.5781,29.6563 Z "/><text fill="#000000" font-family="sans-serif" font-size="12" lengthAdjust="spacingAndGlyphs" textLength="118" x="219.25" y="28.4209">DuplicatedException</text><line style="stroke: #A80036; stroke-width: 1.5;" x1="7" x2="517" y1="40" y2="40"/><rect fill="none" height="6" style="stroke: #C82930; stroke-width: 1.0;" width="6" x="14" y="48.8997"/><text fill="#000000" font-family="sans-serif" font-size="11" lengthAdjust="spacingAndGlyphs" textLength="51" x="26" y="54.4521">id : String</text><rect fill="none" height="6" style="stroke: #C82930; stroke-width: 1.0;" width="6" x="14" y="61.699"/><text fill="#000000" font-family="sans-serif" font-size="11" lengthAdjust="spacingAndGlyphs" textLength="164" x="26" y="67.2515">knowledges: List&lt;Knowledge&gt;</text><line style="stroke: #A80036; stroke-width: 1.5;" x1="7" x2="517" y1="73.5986" y2="73.5986"/><ellipse cx="17" cy="85.4983" fill="#84BE84" rx="3" ry="3" style="stroke: #038048; stroke-width: 1.0;"/><text fill="#000000" font-family="sans-serif" font-size="11" lengthAdjust="spacingAndGlyphs" textLength="241" x="26" y="88.0508">DuplicatedException(@NotNull final String id)</text><ellipse cx="17" cy="98.2976" fill="#84BE84" rx="3" ry="3" style="stroke: #038048; stroke-width: 1.0;"/><text fill="#000000" font-family="sans-serif" font-size="11" lengthAdjust="spacingAndGlyphs" textLength="486" x="26" y="100.8501">DuplicatedException(@NotNull final String id, @NotNull final List&lt;Knowledge&gt; knowledges)</text><ellipse cx="17" cy="111.0969" fill="#84BE84" rx="3" ry="3" style="stroke: #038048; stroke-width: 1.0;"/><text fill="#000000" font-family="sans-serif" font-size="11" lengthAdjust="spacingAndGlyphs" textLength="256" x="26" y="113.6494">add(@NotNull final Knowledge knowledge) : void</text><ellipse cx="17" cy="123.8962" fill="#84BE84" rx="3" ry="3" style="stroke: #038048; stroke-width: 1.0;"/><text fill="#000000" font-family="sans-serif" font-size="11" lengthAdjust="spacingAndGlyphs" textLength="76" x="26" y="126.4487">getId() : String</text><ellipse cx="17" cy="136.6956" fill="#84BE84" rx="3" ry="3" style="stroke: #038048; stroke-width: 1.0;"/><text fill="#000000" font-family="sans-serif" font-size="11" lengthAdjust="spacingAndGlyphs" textLength="193" x="26" y="139.248">getKnowledges() : List&lt;Knowledge&gt;</text></g></svg>