<?xml version="1.0" encoding="UTF-8" standalone="yes"?><svg xmlns="http://www.w3.org/2000/svg" xmlns:xlink="http://www.w3.org/1999/xlink" height="120pt" style="width:173px;height:120px;" version="1.1" viewBox="0 0 173 120" width="173pt"><defs><filter height="300%" id="f1" width="300%" x="-1" y="-1"><feGaussianBlur result="blurOut" stdDeviation="2.0"/><feColorMatrix in="blurOut" result="blurOut2" type="matrix" values="0 0 0 0 0 0 0 0 0 0 0 0 0 0 0 0 0 0 .4 0"/><feOffset dx="4.0" dy="4.0" in="blurOut2" result="blurOut3"/><feBlend in="SourceGraphic" in2="blurOut3" mode="normal"/></filter></defs><g><rect fill="#FEFECE" filter="url(#f1)" height="103.9966" style="stroke: #A80036; stroke-width: 1.5;" width="158" x="6" y="8"/><ellipse cx="69.25" cy="24" fill="#B4A7E5" rx="11" ry="11" style="stroke: #A80036; stroke-width: 1.0;"/><path d="M65.2656,30 L65.2656,28.3594 L68.1406,28.3594 L68.1406,19.3438 L65.2656,19.3438 L65.2656,17.7188 L73.4688,17.7188 L73.4688,19.3438 L70.5938,19.3438 L70.5938,28.3594 L73.4688,28.3594 L73.4688,30 L65.2656,30 Z "/><text fill="#000000" font-family="sans-serif" font-size="12" font-style="italic" lengthAdjust="spacingAndGlyphs" textLength="23" x="89.75" y="28.4209">Fact</text><line style="stroke: #A80036; stroke-width: 1.5;" x1="7" x2="163" y1="40" y2="40"/><ellipse cx="17" cy="51.8997" fill="#84BE84" rx="3" ry="3" style="stroke: #038048; stroke-width: 1.0;"/><text fill="#000000" font-family="sans-serif" font-size="11" lengthAdjust="spacingAndGlyphs" textLength="91" x="26" y="54.4521">getId()      : String</text><ellipse cx="17" cy="64.699" fill="#84BE84" rx="3" ry="3" style="stroke: #038048; stroke-width: 1.0;"/><text fill="#000000" font-family="sans-serif" font-size="11" lengthAdjust="spacingAndGlyphs" textLength="111" x="26" y="67.2515">getName()      : String</text><ellipse cx="17" cy="77.4983" fill="#84BE84" rx="3" ry="3" style="stroke: #038048; stroke-width: 1.0;"/><text fill="#000000" font-family="sans-serif" font-size="11" lengthAdjust="spacingAndGlyphs" textLength="112" x="26" y="80.0508">getSource()    : String</text><ellipse cx="17" cy="90.2976" fill="#84BE84" rx="3" ry="3" style="stroke: #038048; stroke-width: 1.0;"/><text fill="#000000" font-family="sans-serif" font-size="11" lengthAdjust="spacingAndGlyphs" textLength="123" x="26" y="92.8501">getDate()      : DateTime</text><ellipse cx="17" cy="103.0969" fill="#84BE84" rx="3" ry="3" style="stroke: #038048; stroke-width: 1.0;"/><text fill="#000000" font-family="sans-serif" font-size="11" lengthAdjust="spacingAndGlyphs" textLength="132" x="26" y="105.6494">getPresence()  : FiveState</text></g></svg>