<?xml version="1.0" encoding="UTF-8" standalone="yes"?><svg xmlns="http://www.w3.org/2000/svg" xmlns:xlink="http://www.w3.org/1999/xlink" height="275pt" style="width:245px;height:275px;" version="1.1" viewBox="0 0 245 275" width="245pt"><defs><filter height="300%" id="f1" width="300%" x="-1" y="-1"><feGaussianBlur result="blurOut" stdDeviation="2.0"/><feColorMatrix in="blurOut" result="blurOut2" type="matrix" values="0 0 0 0 0 0 0 0 0 0 0 0 0 0 0 0 0 0 .4 0"/><feOffset dx="4.0" dy="4.0" in="blurOut2" result="blurOut3"/><feBlend in="SourceGraphic" in2="blurOut3" mode="normal"/></filter></defs><g><rect fill="#FEFECE" filter="url(#f1)" height="150.3945" style="stroke: #A80036; stroke-width: 1.5;" width="230" x="6" y="116"/><ellipse cx="60.75" cy="132" fill="#ADD1B2" rx="11" ry="11" style="stroke: #A80036; stroke-width: 1.0;"/><path d="M64.5781,137.6563 Q62.7031,138.3125 60.8906,138.3125 Q58.2969,138.3125 56.7109,136.5313 Q55.125,134.75 55.125,131.8438 Q55.125,129.1563 56.5313,127.3906 Q57.3906,126.3125 58.5078,125.8594 Q59.625,125.4063 61.4063,125.4063 Q63.125,125.4063 64.5781,125.7656 L64.5781,127.75 Q62.7031,127.0469 61.4531,127.0469 Q59.7656,127.0469 58.7734,128.3672 Q57.7813,129.6875 57.7813,131.9219 Q57.7813,133.9688 58.8203,135.2656 Q59.8594,136.5625 61.5,136.5625 Q62.8906,136.5625 64.5781,135.7813 L64.5781,137.6563 Z "/><text fill="#000000" font-family="sans-serif" font-size="12" lengthAdjust="spacingAndGlyphs" textLength="112" x="81.25" y="136.4209">KnowledgeStatistics</text><line style="stroke: #A80036; stroke-width: 1.5;" x1="7" x2="235" y1="148" y2="148"/><rect fill="none" height="6" style="stroke: #C82930; stroke-width: 1.0;" width="6" x="14" y="156.8997"/><text fill="#000000" font-family="sans-serif" font-size="11" lengthAdjust="spacingAndGlyphs" textLength="187" x="26" y="162.4521">knowledge                      : Knowledge</text><rect fill="none" height="6" style="stroke: #C82930; stroke-width: 1.0;" width="6" x="14" y="169.699"/><text fill="#000000" font-family="sans-serif" font-size="11" lengthAdjust="spacingAndGlyphs" textLength="161" x="26" y="175.2515">completeness                   : float</text><rect fill="none" height="6" style="stroke: #C82930; stroke-width: 1.0;" width="6" x="14" y="182.4983"/><text fill="#000000" font-family="sans-serif" font-size="11" lengthAdjust="spacingAndGlyphs" textLength="148" x="26" y="188.0508">consistency                  : float</text><line style="stroke: #A80036; stroke-width: 1.5;" x1="7" x2="235" y1="194.3979" y2="194.3979"/><ellipse cx="17" cy="206.2976" fill="#84BE84" rx="3" ry="3" style="stroke: #038048; stroke-width: 1.0;"/><text fill="#000000" font-family="sans-serif" font-size="11" lengthAdjust="spacingAndGlyphs" textLength="204" x="26" y="208.8501">KnowledgeStatistics(Knowledge) : void</text><ellipse cx="17" cy="219.0969" fill="#84BE84" rx="3" ry="3" style="stroke: #038048; stroke-width: 1.0;"/><text fill="#000000" font-family="sans-serif" font-size="11" lengthAdjust="spacingAndGlyphs" textLength="173" x="26" y="221.6494">getCompleteness()              : float</text><ellipse cx="17" cy="231.8962" fill="#84BE84" rx="3" ry="3" style="stroke: #038048; stroke-width: 1.0;"/><text fill="#000000" font-family="sans-serif" font-size="11" lengthAdjust="spacingAndGlyphs" textLength="176" x="26" y="234.4487">setCompleteness(int)           : void</text><ellipse cx="17" cy="244.6956" fill="#84BE84" rx="3" ry="3" style="stroke: #038048; stroke-width: 1.0;"/><text fill="#000000" font-family="sans-serif" font-size="11" lengthAdjust="spacingAndGlyphs" textLength="160" x="26" y="247.248">getConsistency()             : float</text><ellipse cx="17" cy="257.4949" fill="#84BE84" rx="3" ry="3" style="stroke: #038048; stroke-width: 1.0;"/><text fill="#000000" font-family="sans-serif" font-size="11" lengthAdjust="spacingAndGlyphs" textLength="163" x="26" y="260.0474">setConsistency(int)          : void</text><rect fill="#FEFECE" filter="url(#f1)" height="48" style="stroke: #A80036; stroke-width: 1.5;" width="110" x="66" y="8"/><ellipse cx="81" cy="24" fill="#B4A7E5" rx="11" ry="11" style="stroke: #A80036; stroke-width: 1.0;"/><path d="M77.0156,30 L77.0156,28.3594 L79.8906,28.3594 L79.8906,19.3438 L77.0156,19.3438 L77.0156,17.7188 L85.2188,17.7188 L85.2188,19.3438 L82.3438,19.3438 L82.3438,28.3594 L85.2188,28.3594 L85.2188,30 L77.0156,30 Z "/><text fill="#000000" font-family="sans-serif" font-size="12" font-style="italic" lengthAdjust="spacingAndGlyphs" textLength="78" x="95" y="28.4209">LogicStatistics</text><line style="stroke: #A80036; stroke-width: 1.5;" x1="67" x2="175" y1="40" y2="40"/><line style="stroke: #A80036; stroke-width: 1.5;" x1="67" x2="175" y1="48" y2="48"/><path d="M121,76.375 C121,88.666 121,102.405 121,115.965 " fill="none" style="stroke: #A80036; stroke-width: 1.0; stroke-dasharray: 7.0,7.0;"/><polygon fill="none" points="114,76.166,121,56.166,128,76.166,114,76.166" style="stroke: #A80036; stroke-width: 1.0;"/></g></svg>