<?xml version="1.0" encoding="UTF-8" standalone="yes"?><svg xmlns="http://www.w3.org/2000/svg" xmlns:xlink="http://www.w3.org/1999/xlink" height="195pt" style="width:230px;height:195px;" version="1.1" viewBox="0 0 230 195" width="230pt"><defs><filter height="300%" id="f1" width="300%" x="-1" y="-1"><feGaussianBlur result="blurOut" stdDeviation="2.0"/><feColorMatrix in="blurOut" result="blurOut2" type="matrix" values="0 0 0 0 0 0 0 0 0 0 0 0 0 0 0 0 0 0 .4 0"/><feOffset dx="4.0" dy="4.0" in="blurOut2" result="blurOut3"/><feBlend in="SourceGraphic" in2="blurOut3" mode="normal"/></filter></defs><g><rect fill="#FEFECE" filter="url(#f1)" height="78.3979" style="stroke: #A80036; stroke-width: 1.5;" width="188" x="6" y="108"/><ellipse cx="64.25" cy="124" fill="#B4A7E5" rx="11" ry="11" style="stroke: #A80036; stroke-width: 1.0;"/><path d="M60.2656,130 L60.2656,128.3594 L63.1406,128.3594 L63.1406,119.3438 L60.2656,119.3438 L60.2656,117.7188 L68.4688,117.7188 L68.4688,119.3438 L65.5938,119.3438 L65.5938,128.3594 L68.4688,128.3594 L68.4688,130 L60.2656,130 Z "/><text fill="#000000" font-family="sans-serif" font-size="12" font-style="italic" lengthAdjust="spacingAndGlyphs" textLength="63" x="84.75" y="128.4209">Knowledge</text><line style="stroke: #A80036; stroke-width: 1.5;" x1="7" x2="193" y1="140" y2="140"/><ellipse cx="17" cy="151.8997" fill="#84BE84" rx="3" ry="3" style="stroke: #038048; stroke-width: 1.0;"/><text fill="#000000" font-family="sans-serif" font-size="11" lengthAdjust="spacingAndGlyphs" textLength="152" x="26" y="154.4521">getPartOf()       : Knowledge[]</text><ellipse cx="17" cy="164.699" fill="#84BE84" rx="3" ry="3" style="stroke: #038048; stroke-width: 1.0;"/><text fill="#000000" font-family="sans-serif" font-size="11" lengthAdjust="spacingAndGlyphs" textLength="154" x="26" y="167.2515">getNodeType()     : NodeType</text><ellipse cx="17" cy="177.4983" fill="#84BE84" rx="3" ry="3" style="stroke: #038048; stroke-width: 1.0;"/><text fill="#000000" font-family="sans-serif" font-size="11" lengthAdjust="spacingAndGlyphs" textLength="162" x="26" y="180.0508">getConclusion()   : Conclusion</text><rect fill="#FEFECE" filter="url(#f1)" height="40" style="stroke: #A80036; stroke-width: 1.5;" width="55" x="72.5" y="8"/><ellipse cx="87.5" cy="24" fill="#B4A7E5" rx="11" ry="11" style="stroke: #A80036; stroke-width: 1.0;"/><path d="M83.5156,30 L83.5156,28.3594 L86.3906,28.3594 L86.3906,19.3438 L83.5156,19.3438 L83.5156,17.7188 L91.7188,17.7188 L91.7188,19.3438 L88.8438,19.3438 L88.8438,28.3594 L91.7188,28.3594 L91.7188,30 L83.5156,30 Z "/><text fill="#000000" font-family="sans-serif" font-size="12" font-style="italic" lengthAdjust="spacingAndGlyphs" textLength="23" x="101.5" y="28.4209">Fact</text><line style="stroke: #A80036; stroke-width: 1.5;" x1="73.5" x2="126.5" y1="40" y2="40"/><path d="M100,68.208 C100,80.884 100,94.9215 100,107.543 " fill="none" style="stroke: #A80036; stroke-width: 1.0;"/><polygon fill="none" points="93.0001,68.059,100,48.058,107,68.058,93.0001,68.059" style="stroke: #A80036; stroke-width: 1.0;"/><path d="M207.367,127.8869 C220.438,131.3211 229,137.6921 229,147 C229,159.1572 214.394,166.3043 194.212,168.4414 " fill="none" style="stroke: #A80036; stroke-width: 1.0;"/><polygon fill="#A80036" points="194.212,125.5586,199.423,130.5431,206.0283,127.65,200.8173,122.6655,194.212,125.5586" style="stroke: #A80036; stroke-width: 1.0;"/><text fill="#000000" font-family="sans-serif" font-size="13" lengthAdjust="spacingAndGlyphs" textLength="22" x="201.9385" y="120.7758">0..*</text><text fill="#000000" font-family="sans-serif" font-size="13" lengthAdjust="spacingAndGlyphs" textLength="8" x="202.0383" y="166.8941">1</text></g></svg>