<?xml version="1.0" encoding="UTF-8" standalone="yes"?><svg xmlns="http://www.w3.org/2000/svg" xmlns:xlink="http://www.w3.org/1999/xlink" height="108pt" style="width:217px;height:108px;" version="1.1" viewBox="0 0 217 108" width="217pt"><defs><filter height="300%" id="f1" width="300%" x="-1" y="-1"><feGaussianBlur result="blurOut" stdDeviation="2.0"/><feColorMatrix in="blurOut" result="blurOut2" type="matrix" values="0 0 0 0 0 0 0 0 0 0 0 0 0 0 0 0 0 0 .4 0"/><feOffset dx="4.0" dy="4.0" in="blurOut2" result="blurOut3"/><feBlend in="SourceGraphic" in2="blurOut3" mode="normal"/></filter></defs><g><rect fill="#FEFECE" filter="url(#f1)" height="91.1973" style="stroke: #A80036; stroke-width: 1.5;" width="202" x="6" y="8"/><ellipse cx="63.75" cy="24" fill="#B4A7E5" rx="11" ry="11" style="stroke: #A80036; stroke-width: 1.0;"/><path d="M59.7656,30 L59.7656,28.3594 L62.6406,28.3594 L62.6406,19.3438 L59.7656,19.3438 L59.7656,17.7188 L67.9688,17.7188 L67.9688,19.3438 L65.0938,19.3438 L65.0938,28.3594 L67.9688,28.3594 L67.9688,30 L59.7656,30 Z "/><text fill="#000000" font-family="sans-serif" font-size="12" font-style="italic" lengthAdjust="spacingAndGlyphs" textLength="78" x="84.25" y="28.4209">LogicStatistics</text><line style="stroke: #A80036; stroke-width: 1.5;" x1="7" x2="207" y1="40" y2="40"/><ellipse cx="17" cy="51.8997" fill="#84BE84" rx="3" ry="3" style="stroke: #038048; stroke-width: 1.0;"/><text fill="#000000" font-family="sans-serif" font-size="11" lengthAdjust="spacingAndGlyphs" textLength="175" x="26" y="54.4521">getCompleteness()              : Float</text><ellipse cx="17" cy="64.699" fill="#84BE84" rx="3" ry="3" style="stroke: #038048; stroke-width: 1.0;"/><text fill="#000000" font-family="sans-serif" font-size="11" lengthAdjust="spacingAndGlyphs" textLength="176" x="26" y="67.2515">setCompleteness(int)           : void</text><ellipse cx="17" cy="77.4983" fill="#84BE84" rx="3" ry="3" style="stroke: #038048; stroke-width: 1.0;"/><text fill="#000000" font-family="sans-serif" font-size="11" lengthAdjust="spacingAndGlyphs" textLength="168" x="26" y="80.0508">getConsistency()               : Float</text><ellipse cx="17" cy="90.2976" fill="#84BE84" rx="3" ry="3" style="stroke: #038048; stroke-width: 1.0;"/><text fill="#000000" font-family="sans-serif" font-size="11" lengthAdjust="spacingAndGlyphs" textLength="169" x="26" y="92.8501">setConsistency(int)            : void</text></g></svg>