<?xml version="1.0" encoding="UTF-8" standalone="yes"?><svg xmlns="http://www.w3.org/2000/svg" xmlns:xlink="http://www.w3.org/1999/xlink" height="182pt" style="width:204px;height:182px;" version="1.1" viewBox="0 0 204 182" width="204pt"><defs><filter height="300%" id="f1" width="300%" x="-1" y="-1"><feGaussianBlur result="blurOut" stdDeviation="2.0"/><feColorMatrix in="blurOut" result="blurOut2" type="matrix" values="0 0 0 0 0 0 0 0 0 0 0 0 0 0 0 0 0 0 .4 0"/><feOffset dx="4.0" dy="4.0" in="blurOut2" result="blurOut3"/><feBlend in="SourceGraphic" in2="blurOut3" mode="normal"/></filter></defs><g><rect fill="#FEFECE" filter="url(#f1)" height="65.5986" style="stroke: #A80036; stroke-width: 1.5;" width="189" x="6" y="108"/><ellipse cx="61.75" cy="124" fill="#B4A7E5" rx="11" ry="11" style="stroke: #A80036; stroke-width: 1.0;"/><path d="M57.7656,130 L57.7656,128.3594 L60.6406,128.3594 L60.6406,119.3438 L57.7656,119.3438 L57.7656,117.7188 L65.9688,117.7188 L65.9688,119.3438 L63.0938,119.3438 L63.0938,128.3594 L65.9688,128.3594 L65.9688,130 L57.7656,130 Z "/><text fill="#000000" font-family="sans-serif" font-size="12" font-style="italic" lengthAdjust="spacingAndGlyphs" textLength="69" x="82.25" y="128.4209">Observation</text><line style="stroke: #A80036; stroke-width: 1.5;" x1="7" x2="194" y1="140" y2="140"/><ellipse cx="17" cy="151.8997" fill="#84BE84" rx="3" ry="3" style="stroke: #038048; stroke-width: 1.0;"/><text fill="#000000" font-family="sans-serif" font-size="11" lengthAdjust="spacingAndGlyphs" textLength="163" x="26" y="154.4521">getKnowledgeName()    : String</text><ellipse cx="17" cy="164.699" fill="#84BE84" rx="3" ry="3" style="stroke: #038048; stroke-width: 1.0;"/><text fill="#000000" font-family="sans-serif" font-size="11" lengthAdjust="spacingAndGlyphs" textLength="152" x="26" y="167.2515">getEvidence()         : Evidence</text><rect fill="#FEFECE" filter="url(#f1)" height="40" style="stroke: #A80036; stroke-width: 1.5;" width="55" x="73" y="8"/><ellipse cx="88" cy="24" fill="#B4A7E5" rx="11" ry="11" style="stroke: #A80036; stroke-width: 1.0;"/><path d="M84.0156,30 L84.0156,28.3594 L86.8906,28.3594 L86.8906,19.3438 L84.0156,19.3438 L84.0156,17.7188 L92.2188,17.7188 L92.2188,19.3438 L89.3438,19.3438 L89.3438,28.3594 L92.2188,28.3594 L92.2188,30 L84.0156,30 Z "/><text fill="#000000" font-family="sans-serif" font-size="12" font-style="italic" lengthAdjust="spacingAndGlyphs" textLength="23" x="102" y="28.4209">Fact</text><line style="stroke: #A80036; stroke-width: 1.5;" x1="74" x2="127" y1="40" y2="40"/><path d="M100.5,68.09 C100.5,81.0508 100.5,95.3229 100.5,107.7125 " fill="none" style="stroke: #A80036; stroke-width: 1.0;"/><polygon fill="none" points="93.5001,68.082,100.5,48.082,107.5,68.082,93.5001,68.082" style="stroke: #A80036; stroke-width: 1.0;"/></g></svg>