<?xml version="1.0" encoding="UTF-8" standalone="yes"?><svg xmlns="http://www.w3.org/2000/svg" xmlns:xlink="http://www.w3.org/1999/xlink" height="638pt" style="width:1061px;height:638px;" version="1.1" viewBox="0 0 1061 638" width="1061pt"><defs><filter height="300%" id="f1" width="300%" x="-1" y="-1"><feGaussianBlur result="blurOut" stdDeviation="2.0"/><feColorMatrix in="blurOut" result="blurOut2" type="matrix" values="0 0 0 0 0 0 0 0 0 0 0 0 0 0 0 0 0 0 .4 0"/><feOffset dx="4.0" dy="4.0" in="blurOut2" result="blurOut3"/><feBlend in="SourceGraphic" in2="blurOut3" mode="normal"/></filter></defs><g><polygon fill="#FFFFFF" filter="url(#f1)" points="14,16,149,16,156,38.29,1054,38.29,1054,631,14,631,14,16" style="stroke: #000000; stroke-width: 2.0;"/><line style="stroke: #000000; stroke-width: 2.0;" x1="14" x2="156" y1="38.29" y2="38.29"/><text fill="#000000" font-family="sans-serif" font-size="14" font-weight="bold" lengthAdjust="spacingAndGlyphs" textLength="129" x="17" y="32.3369">fr.cea.ig.grools.api</text><rect fill="#FEFECE" filter="url(#f1)" height="78.3979" style="stroke: #A80036; stroke-width: 1.5;" width="92" x="602" y="139"/><ellipse cx="617" cy="155" fill="#EB937F" rx="11" ry="11" style="stroke: #A80036; stroke-width: 1.0;"/><path d="M613.3906,161 L613.3906,148.7188 L621.0781,148.7188 L621.0781,150.3438 L615.8594,150.3438 L615.8594,153.8281 L620.2656,153.8281 L620.2656,155.3594 L615.8594,155.3594 L615.8594,159.3594 L621.5156,159.3594 L621.5156,161 L613.3906,161 Z "/><text fill="#000000" font-family="sans-serif" font-size="12" lengthAdjust="spacingAndGlyphs" textLength="60" x="631" y="159.4209">NodeType</text><line style="stroke: #A80036; stroke-width: 1.5;" x1="603" x2="693" y1="171" y2="171"/><text fill="#000000" font-family="sans-serif" font-size="11" lengthAdjust="spacingAndGlyphs" textLength="26" x="608" y="185.4521">LEAF</text><text fill="#000000" font-family="sans-serif" font-size="11" lengthAdjust="spacingAndGlyphs" textLength="24" x="608" y="198.2515">AND</text><text fill="#000000" font-family="sans-serif" font-size="11" lengthAdjust="spacingAndGlyphs" textLength="16" x="608" y="211.0508">OR</text><rect fill="#FEFECE" filter="url(#f1)" height="40" style="stroke: #A80036; stroke-width: 1.5;" width="85" x="278.5" y="583"/><ellipse cx="293.5" cy="599" fill="#B4A7E5" rx="11" ry="11" style="stroke: #A80036; stroke-width: 1.0;"/><path d="M289.5156,605 L289.5156,603.3594 L292.3906,603.3594 L292.3906,594.3438 L289.5156,594.3438 L289.5156,592.7188 L297.7188,592.7188 L297.7188,594.3438 L294.8438,594.3438 L294.8438,603.3594 L297.7188,603.3594 L297.7188,605 L289.5156,605 Z "/><text fill="#000000" font-family="sans-serif" font-size="12" font-style="italic" lengthAdjust="spacingAndGlyphs" textLength="53" x="307.5" y="603.4209">Assertion</text><line style="stroke: #A80036; stroke-width: 1.5;" x1="279.5" x2="362.5" y1="615" y2="615"/><rect fill="#FEFECE" filter="url(#f1)" height="65.5986" style="stroke: #A80036; stroke-width: 1.5;" width="189" x="287.5" y="415"/><ellipse cx="343.25" cy="431" fill="#B4A7E5" rx="11" ry="11" style="stroke: #A80036; stroke-width: 1.0;"/><path d="M339.2656,437 L339.2656,435.3594 L342.1406,435.3594 L342.1406,426.3438 L339.2656,426.3438 L339.2656,424.7188 L347.4688,424.7188 L347.4688,426.3438 L344.5938,426.3438 L344.5938,435.3594 L347.4688,435.3594 L347.4688,437 L339.2656,437 Z "/><text fill="#000000" font-family="sans-serif" font-size="12" font-style="italic" lengthAdjust="spacingAndGlyphs" textLength="69" x="363.75" y="435.4209">Observation</text><line style="stroke: #A80036; stroke-width: 1.5;" x1="288.5" x2="475.5" y1="447" y2="447"/><ellipse cx="298.5" cy="458.8997" fill="#84BE84" rx="3" ry="3" style="stroke: #038048; stroke-width: 1.0;"/><text fill="#000000" font-family="sans-serif" font-size="11" lengthAdjust="spacingAndGlyphs" textLength="163" x="307.5" y="461.4521">getKnowledgeName()    : String</text><ellipse cx="298.5" cy="471.699" fill="#84BE84" rx="3" ry="3" style="stroke: #038048; stroke-width: 1.0;"/><text fill="#000000" font-family="sans-serif" font-size="11" lengthAdjust="spacingAndGlyphs" textLength="152" x="307.5" y="474.2515">getEvidence()         : Evidence</text><rect fill="#FEFECE" filter="url(#f1)" height="103.9966" style="stroke: #A80036; stroke-width: 1.5;" width="158" x="356" y="126"/><ellipse cx="419.25" cy="142" fill="#B4A7E5" rx="11" ry="11" style="stroke: #A80036; stroke-width: 1.0;"/><path d="M415.2656,148 L415.2656,146.3594 L418.1406,146.3594 L418.1406,137.3438 L415.2656,137.3438 L415.2656,135.7188 L423.4688,135.7188 L423.4688,137.3438 L420.5938,137.3438 L420.5938,146.3594 L423.4688,146.3594 L423.4688,148 L415.2656,148 Z "/><text fill="#000000" font-family="sans-serif" font-size="12" font-style="italic" lengthAdjust="spacingAndGlyphs" textLength="23" x="439.75" y="146.4209">Fact</text><line style="stroke: #A80036; stroke-width: 1.5;" x1="357" x2="513" y1="158" y2="158"/><ellipse cx="367" cy="169.8997" fill="#84BE84" rx="3" ry="3" style="stroke: #038048; stroke-width: 1.0;"/><text fill="#000000" font-family="sans-serif" font-size="11" lengthAdjust="spacingAndGlyphs" textLength="91" x="376" y="172.4521">getId()      : String</text><ellipse cx="367" cy="182.699" fill="#84BE84" rx="3" ry="3" style="stroke: #038048; stroke-width: 1.0;"/><text fill="#000000" font-family="sans-serif" font-size="11" lengthAdjust="spacingAndGlyphs" textLength="111" x="376" y="185.2515">getName()      : String</text><ellipse cx="367" cy="195.4983" fill="#84BE84" rx="3" ry="3" style="stroke: #038048; stroke-width: 1.0;"/><text fill="#000000" font-family="sans-serif" font-size="11" lengthAdjust="spacingAndGlyphs" textLength="112" x="376" y="198.0508">getSource()    : String</text><ellipse cx="367" cy="208.2976" fill="#84BE84" rx="3" ry="3" style="stroke: #038048; stroke-width: 1.0;"/><text fill="#000000" font-family="sans-serif" font-size="11" lengthAdjust="spacingAndGlyphs" textLength="123" x="376" y="210.8501">getDate()      : DateTime</text><ellipse cx="367" cy="221.0969" fill="#84BE84" rx="3" ry="3" style="stroke: #038048; stroke-width: 1.0;"/><text fill="#000000" font-family="sans-serif" font-size="11" lengthAdjust="spacingAndGlyphs" textLength="132" x="376" y="223.6494">getPresence()  : FiveState</text><rect fill="#FEFECE" filter="url(#f1)" height="116.7959" style="stroke: #A80036; stroke-width: 1.5;" width="88" x="729" y="119.5"/><ellipse cx="746.25" cy="135.5" fill="#EB937F" rx="11" ry="11" style="stroke: #A80036; stroke-width: 1.0;"/><path d="M742.6406,141.5 L742.6406,129.2188 L750.3281,129.2188 L750.3281,130.8438 L745.1094,130.8438 L745.1094,134.3281 L749.5156,134.3281 L749.5156,135.8594 L745.1094,135.8594 L745.1094,139.8594 L750.7656,139.8594 L750.7656,141.5 L742.6406,141.5 Z "/><text fill="#000000" font-family="sans-serif" font-size="12" lengthAdjust="spacingAndGlyphs" textLength="51" x="760.75" y="139.9209">Evidence</text><line style="stroke: #A80036; stroke-width: 1.5;" x1="730" x2="816" y1="151.5" y2="151.5"/><text fill="#000000" font-family="sans-serif" font-size="11" lengthAdjust="spacingAndGlyphs" textLength="60" x="735" y="165.9521">VERY_HIGH</text><text fill="#000000" font-family="sans-serif" font-size="11" lengthAdjust="spacingAndGlyphs" textLength="27" x="735" y="178.7515">HIGH</text><text fill="#000000" font-family="sans-serif" font-size="11" lengthAdjust="spacingAndGlyphs" textLength="76" x="735" y="191.5508">MEDIUM_HIGH</text><text fill="#000000" font-family="sans-serif" font-size="11" lengthAdjust="spacingAndGlyphs" textLength="43" x="735" y="204.3501">MEDIUM</text><text fill="#000000" font-family="sans-serif" font-size="11" lengthAdjust="spacingAndGlyphs" textLength="73" x="735" y="217.1494">MEDIUM_LOW</text><text fill="#000000" font-family="sans-serif" font-size="11" lengthAdjust="spacingAndGlyphs" textLength="24" x="735" y="229.9487">LOW</text><rect fill="#FEFECE" filter="url(#f1)" height="270.3877" style="stroke: #A80036; stroke-width: 1.5;" width="194" x="852" y="43"/><ellipse cx="914.25" cy="59" fill="#EB937F" rx="11" ry="11" style="stroke: #A80036; stroke-width: 1.0;"/><path d="M910.6406,65 L910.6406,52.7188 L918.3281,52.7188 L918.3281,54.3438 L913.1094,54.3438 L913.1094,57.8281 L917.5156,57.8281 L917.5156,59.3594 L913.1094,59.3594 L913.1094,63.3594 L918.7656,63.3594 L918.7656,65 L910.6406,65 Z "/><text fill="#000000" font-family="sans-serif" font-size="12" lengthAdjust="spacingAndGlyphs" textLength="61" x="934.75" y="63.4209">Conclusion</text><line style="stroke: #A80036; stroke-width: 1.5;" x1="853" x2="1045" y1="75" y2="75"/><text fill="#000000" font-family="sans-serif" font-size="11" lengthAdjust="spacingAndGlyphs" textLength="123" x="858" y="89.4521">CONFIRMED_PRESENCE</text><text fill="#000000" font-family="sans-serif" font-size="11" lengthAdjust="spacingAndGlyphs" textLength="118" x="858" y="102.2515">CONFIRMED_ABSENCE</text><text fill="#000000" font-family="sans-serif" font-size="11" lengthAdjust="spacingAndGlyphs" textLength="139" x="858" y="115.0508">UNCONFIRMED_PRESENCE</text><text fill="#000000" font-family="sans-serif" font-size="11" lengthAdjust="spacingAndGlyphs" textLength="134" x="858" y="127.8501">UNCONFIRMED_ABSENCE</text><text fill="#000000" font-family="sans-serif" font-size="11" lengthAdjust="spacingAndGlyphs" textLength="182" x="858" y="140.6494">UNCONFIRMED_CONTRADICTORY</text><text fill="#000000" font-family="sans-serif" font-size="11" lengthAdjust="spacingAndGlyphs" textLength="43" x="858" y="153.4487">MISSING</text><text fill="#000000" font-family="sans-serif" font-size="11" lengthAdjust="spacingAndGlyphs" textLength="80" x="858" y="166.248">UNEVALUATED</text><text fill="#000000" font-family="sans-serif" font-size="11" lengthAdjust="spacingAndGlyphs" textLength="57" x="858" y="179.0474">UNKNOWN</text><text fill="#000000" font-family="sans-serif" font-size="11" lengthAdjust="spacingAndGlyphs" textLength="68" x="858" y="191.8467">AMBIGUOUS,</text><text fill="#000000" font-family="sans-serif" font-size="11" lengthAdjust="spacingAndGlyphs" textLength="124" x="858" y="204.646">AMBIGUOUS_PRESENCE</text><text fill="#000000" font-family="sans-serif" font-size="11" lengthAdjust="spacingAndGlyphs" textLength="119" x="858" y="217.4453">AMBIGUOUS_ABSENCE</text><text fill="#000000" font-family="sans-serif" font-size="11" lengthAdjust="spacingAndGlyphs" textLength="167" x="858" y="230.2446">AMBIGUOUS_CONTRADICTORY</text><text fill="#000000" font-family="sans-serif" font-size="11" lengthAdjust="spacingAndGlyphs" textLength="70" x="858" y="243.0439">UNEXPECTED</text><text fill="#000000" font-family="sans-serif" font-size="11" lengthAdjust="spacingAndGlyphs" textLength="129" x="858" y="255.8433">UNEXPECTED_PRESENCE</text><text fill="#000000" font-family="sans-serif" font-size="11" lengthAdjust="spacingAndGlyphs" textLength="124" x="858" y="268.6426">UNEXPECTED_ABSENCE</text><text fill="#000000" font-family="sans-serif" font-size="11" lengthAdjust="spacingAndGlyphs" textLength="167" x="858" y="281.4419">AMBIGUOUS_CONTRADICTORY</text><text fill="#000000" font-family="sans-serif" font-size="11" lengthAdjust="spacingAndGlyphs" textLength="155" x="858" y="294.2412">CONTRADICTORY_PRESENCE</text><text fill="#000000" font-family="sans-serif" font-size="11" lengthAdjust="spacingAndGlyphs" textLength="150" x="858" y="307.0405">CONTRADICTORY_ABSENCE</text><rect fill="#FEFECE" filter="url(#f1)" height="103.9966" style="stroke: #A80036; stroke-width: 1.5;" width="92" x="753" y="396"/><ellipse cx="772.5" cy="412" fill="#EB937F" rx="11" ry="11" style="stroke: #A80036; stroke-width: 1.0;"/><path d="M768.8906,418 L768.8906,405.7188 L776.5781,405.7188 L776.5781,407.3438 L771.3594,407.3438 L771.3594,410.8281 L775.7656,410.8281 L775.7656,412.3594 L771.3594,412.3594 L771.3594,416.3594 L777.0156,416.3594 L777.0156,418 L768.8906,418 Z "/><text fill="#000000" font-family="sans-serif" font-size="12" lengthAdjust="spacingAndGlyphs" textLength="50" x="787.5" y="416.4209">FiveState</text><line style="stroke: #A80036; stroke-width: 1.5;" x1="754" x2="844" y1="428" y2="428"/><text fill="#000000" font-family="sans-serif" font-size="11" lengthAdjust="spacingAndGlyphs" textLength="28" x="759" y="442.4521">TRUE</text><text fill="#000000" font-family="sans-serif" font-size="11" lengthAdjust="spacingAndGlyphs" textLength="32" x="759" y="455.2515">FALSE</text><text fill="#000000" font-family="sans-serif" font-size="11" lengthAdjust="spacingAndGlyphs" textLength="30" x="759" y="468.0508">BOTH</text><text fill="#000000" font-family="sans-serif" font-size="11" lengthAdjust="spacingAndGlyphs" textLength="57" x="759" y="480.8501">UNKNOWN</text><text fill="#000000" font-family="sans-serif" font-size="11" lengthAdjust="spacingAndGlyphs" textLength="80" x="759" y="493.6494">UNEVALUATED</text><rect fill="#FEFECE" filter="url(#f1)" height="78.3979" style="stroke: #A80036; stroke-width: 1.5;" width="188" x="512" y="409"/><ellipse cx="570.25" cy="425" fill="#B4A7E5" rx="11" ry="11" style="stroke: #A80036; stroke-width: 1.0;"/><path d="M566.2656,431 L566.2656,429.3594 L569.1406,429.3594 L569.1406,420.3438 L566.2656,420.3438 L566.2656,418.7188 L574.4688,418.7188 L574.4688,420.3438 L571.5938,420.3438 L571.5938,429.3594 L574.4688,429.3594 L574.4688,431 L566.2656,431 Z "/><text fill="#000000" font-family="sans-serif" font-size="12" font-style="italic" lengthAdjust="spacingAndGlyphs" textLength="63" x="590.75" y="429.4209">Knowledge</text><line style="stroke: #A80036; stroke-width: 1.5;" x1="513" x2="699" y1="441" y2="441"/><ellipse cx="523" cy="452.8997" fill="#84BE84" rx="3" ry="3" style="stroke: #038048; stroke-width: 1.0;"/><text fill="#000000" font-family="sans-serif" font-size="11" lengthAdjust="spacingAndGlyphs" textLength="152" x="532" y="455.4521">getPartOf()       : Knowledge[]</text><ellipse cx="523" cy="465.699" fill="#84BE84" rx="3" ry="3" style="stroke: #038048; stroke-width: 1.0;"/><text fill="#000000" font-family="sans-serif" font-size="11" lengthAdjust="spacingAndGlyphs" textLength="154" x="532" y="468.2515">getNodeType()     : NodeType</text><ellipse cx="523" cy="478.4983" fill="#84BE84" rx="3" ry="3" style="stroke: #038048; stroke-width: 1.0;"/><text fill="#000000" font-family="sans-serif" font-size="11" lengthAdjust="spacingAndGlyphs" textLength="162" x="532" y="481.0508">getConclusion()   : Conclusion</text><rect fill="#FEFECE" filter="url(#f1)" height="52.7993" style="stroke: #A80036; stroke-width: 1.5;" width="166" x="880" y="421.5"/><ellipse cx="945.75" cy="437.5" fill="#B4A7E5" rx="11" ry="11" style="stroke: #A80036; stroke-width: 1.0;"/><path d="M941.7656,443.5 L941.7656,441.8594 L944.6406,441.8594 L944.6406,432.8438 L941.7656,432.8438 L941.7656,431.2188 L949.9688,431.2188 L949.9688,432.8438 L947.0938,432.8438 L947.0938,441.8594 L949.9688,441.8594 L949.9688,443.5 L941.7656,443.5 Z "/><text fill="#000000" font-family="sans-serif" font-size="12" font-style="italic" lengthAdjust="spacingAndGlyphs" textLength="26" x="966.25" y="441.9209">User</text><line style="stroke: #A80036; stroke-width: 1.5;" x1="881" x2="1045" y1="453.5" y2="453.5"/><ellipse cx="891" cy="465.3997" fill="#84BE84" rx="3" ry="3" style="stroke: #038048; stroke-width: 1.0;"/><text fill="#000000" font-family="sans-serif" font-size="11" lengthAdjust="spacingAndGlyphs" textLength="140" x="900" y="467.9521">getUserFullName() : String</text><rect fill="#FEFECE" filter="url(#f1)" height="40" style="stroke: #A80036; stroke-width: 1.5;" width="89" x="398.5" y="583"/><ellipse cx="413.5" cy="599" fill="#B4A7E5" rx="11" ry="11" style="stroke: #A80036; stroke-width: 1.0;"/><path d="M409.5156,605 L409.5156,603.3594 L412.3906,603.3594 L412.3906,594.3438 L409.5156,594.3438 L409.5156,592.7188 L417.7188,592.7188 L417.7188,594.3438 L414.8438,594.3438 L414.8438,603.3594 L417.7188,603.3594 L417.7188,605 L409.5156,605 Z "/><text fill="#000000" font-family="sans-serif" font-size="12" font-style="italic" lengthAdjust="spacingAndGlyphs" textLength="57" x="427.5" y="603.4209">Prediction</text><line style="stroke: #A80036; stroke-width: 1.5;" x1="399.5" x2="486.5" y1="615" y2="615"/><rect fill="#FEFECE" filter="url(#f1)" height="91.1973" style="stroke: #A80036; stroke-width: 1.5;" width="202" x="36" y="132.5"/><ellipse cx="93.75" cy="148.5" fill="#B4A7E5" rx="11" ry="11" style="stroke: #A80036; stroke-width: 1.0;"/><path d="M89.7656,154.5 L89.7656,152.8594 L92.6406,152.8594 L92.6406,143.8438 L89.7656,143.8438 L89.7656,142.2188 L97.9688,142.2188 L97.9688,143.8438 L95.0938,143.8438 L95.0938,152.8594 L97.9688,152.8594 L97.9688,154.5 L89.7656,154.5 Z "/><text fill="#000000" font-family="sans-serif" font-size="12" font-style="italic" lengthAdjust="spacingAndGlyphs" textLength="78" x="114.25" y="152.9209">LogicStatistics</text><line style="stroke: #A80036; stroke-width: 1.5;" x1="37" x2="237" y1="164.5" y2="164.5"/><ellipse cx="47" cy="176.3997" fill="#84BE84" rx="3" ry="3" style="stroke: #038048; stroke-width: 1.0;"/><text fill="#000000" font-family="sans-serif" font-size="11" lengthAdjust="spacingAndGlyphs" textLength="175" x="56" y="178.9521">getCompleteness()              : Float</text><ellipse cx="47" cy="189.199" fill="#84BE84" rx="3" ry="3" style="stroke: #038048; stroke-width: 1.0;"/><text fill="#000000" font-family="sans-serif" font-size="11" lengthAdjust="spacingAndGlyphs" textLength="176" x="56" y="191.7515">setCompleteness(int)           : void</text><ellipse cx="47" cy="201.9983" fill="#84BE84" rx="3" ry="3" style="stroke: #038048; stroke-width: 1.0;"/><text fill="#000000" font-family="sans-serif" font-size="11" lengthAdjust="spacingAndGlyphs" textLength="168" x="56" y="204.5508">getConsistency()               : Float</text><ellipse cx="47" cy="214.7976" fill="#84BE84" rx="3" ry="3" style="stroke: #038048; stroke-width: 1.0;"/><text fill="#000000" font-family="sans-serif" font-size="11" lengthAdjust="spacingAndGlyphs" textLength="169" x="56" y="217.3501">setConsistency(int)            : void</text><rect fill="#FEFECE" filter="url(#f1)" height="150.3945" style="stroke: #A80036; stroke-width: 1.5;" width="230" x="22" y="373"/><ellipse cx="76.75" cy="389" fill="#ADD1B2" rx="11" ry="11" style="stroke: #A80036; stroke-width: 1.0;"/><path d="M80.5781,394.6563 Q78.7031,395.3125 76.8906,395.3125 Q74.2969,395.3125 72.7109,393.5313 Q71.125,391.75 71.125,388.8438 Q71.125,386.1563 72.5313,384.3906 Q73.3906,383.3125 74.5078,382.8594 Q75.625,382.4063 77.4063,382.4063 Q79.125,382.4063 80.5781,382.7656 L80.5781,384.75 Q78.7031,384.0469 77.4531,384.0469 Q75.7656,384.0469 74.7734,385.3672 Q73.7813,386.6875 73.7813,388.9219 Q73.7813,390.9688 74.8203,392.2656 Q75.8594,393.5625 77.5,393.5625 Q78.8906,393.5625 80.5781,392.7813 L80.5781,394.6563 Z "/><text fill="#000000" font-family="sans-serif" font-size="12" lengthAdjust="spacingAndGlyphs" textLength="112" x="97.25" y="393.4209">KnowledgeStatistics</text><line style="stroke: #A80036; stroke-width: 1.5;" x1="23" x2="251" y1="405" y2="405"/><rect fill="none" height="6" style="stroke: #C82930; stroke-width: 1.0;" width="6" x="30" y="413.8997"/><text fill="#000000" font-family="sans-serif" font-size="11" lengthAdjust="spacingAndGlyphs" textLength="187" x="42" y="419.4521">knowledge                      : Knowledge</text><rect fill="none" height="6" style="stroke: #C82930; stroke-width: 1.0;" width="6" x="30" y="426.699"/><text fill="#000000" font-family="sans-serif" font-size="11" lengthAdjust="spacingAndGlyphs" textLength="161" x="42" y="432.2515">completeness                   : float</text><rect fill="none" height="6" style="stroke: #C82930; stroke-width: 1.0;" width="6" x="30" y="439.4983"/><text fill="#000000" font-family="sans-serif" font-size="11" lengthAdjust="spacingAndGlyphs" textLength="148" x="42" y="445.0508">consistency                  : float</text><line style="stroke: #A80036; stroke-width: 1.5;" x1="23" x2="251" y1="451.3979" y2="451.3979"/><ellipse cx="33" cy="463.2976" fill="#84BE84" rx="3" ry="3" style="stroke: #038048; stroke-width: 1.0;"/><text fill="#000000" font-family="sans-serif" font-size="11" lengthAdjust="spacingAndGlyphs" textLength="204" x="42" y="465.8501">KnowledgeStatistics(Knowledge) : void</text><ellipse cx="33" cy="476.0969" fill="#84BE84" rx="3" ry="3" style="stroke: #038048; stroke-width: 1.0;"/><text fill="#000000" font-family="sans-serif" font-size="11" lengthAdjust="spacingAndGlyphs" textLength="173" x="42" y="478.6494">getCompleteness()              : float</text><ellipse cx="33" cy="488.8962" fill="#84BE84" rx="3" ry="3" style="stroke: #038048; stroke-width: 1.0;"/><text fill="#000000" font-family="sans-serif" font-size="11" lengthAdjust="spacingAndGlyphs" textLength="176" x="42" y="491.4487">setCompleteness(int)           : void</text><ellipse cx="33" cy="501.6956" fill="#84BE84" rx="3" ry="3" style="stroke: #038048; stroke-width: 1.0;"/><text fill="#000000" font-family="sans-serif" font-size="11" lengthAdjust="spacingAndGlyphs" textLength="160" x="42" y="504.248">getConsistency()             : float</text><ellipse cx="33" cy="514.4949" fill="#84BE84" rx="3" ry="3" style="stroke: #038048; stroke-width: 1.0;"/><text fill="#000000" font-family="sans-serif" font-size="11" lengthAdjust="spacingAndGlyphs" textLength="163" x="42" y="517.0474">setConsistency(int)          : void</text><path d="M361.767,499.749 C350.381,528.307 336.834,562.2858 328.579,582.9896 " fill="none" style="stroke: #A80036; stroke-width: 1.0;"/><polygon fill="none" points="355.303,497.059,369.212,481.074,368.308,502.244,355.303,497.059" style="stroke: #A80036; stroke-width: 1.0;"/><path d="M420.973,249.927 C410.408,303.351 396.416,374.104 388.392,414.679 " fill="none" style="stroke: #A80036; stroke-width: 1.0;"/><polygon fill="none" points="414.159,248.302,424.906,230.04,427.893,251.018,414.159,248.302" style="stroke: #A80036; stroke-width: 1.0;"/><path d="M478.411,247.036 C511.104,298.274 554.736,366.656 581.573,408.717 " fill="none" style="stroke: #A80036; stroke-width: 1.0;"/><polygon fill="none" points="472.423,250.665,467.566,230.04,484.225,243.135,472.423,250.665" style="stroke: #A80036; stroke-width: 1.0;"/><path d="M712.966,422.92 C726.263,427.368 735,435.728 735,448 C735,463.866 720.394,473.194 700.212,475.983 " fill="none" style="stroke: #A80036; stroke-width: 1.0;"/><polygon fill="#A80036" points="700.212,420.017,705.1751,425.2484,711.913,422.6792,706.9499,417.4478,700.212,420.017" style="stroke: #A80036; stroke-width: 1.0;"/><text fill="#000000" font-family="sans-serif" font-size="13" lengthAdjust="spacingAndGlyphs" textLength="22" x="707.9385" y="414.7538">0..*</text><text fill="#000000" font-family="sans-serif" font-size="13" lengthAdjust="spacingAndGlyphs" textLength="8" x="708.0383" y="474.957">1</text><path d="M402.233,499.749 C413.619,528.307 427.166,562.2858 435.421,582.9896 " fill="none" style="stroke: #A80036; stroke-width: 1.0;"/><polygon fill="none" points="395.692,502.244,394.788,481.074,408.697,497.059,395.692,502.244" style="stroke: #A80036; stroke-width: 1.0;"/><path d="M137,243.685 C137,282.654 137,332.414 137,372.952 " fill="none" style="stroke: #A80036; stroke-width: 1.0; stroke-dasharray: 7.0,7.0;"/><polygon fill="none" points="130,243.556,137,223.556,144,243.556,130,243.556" style="stroke: #A80036; stroke-width: 1.0;"/></g></svg>