<?xml version="1.0" encoding="UTF-8" standalone="yes"?><svg xmlns="http://www.w3.org/2000/svg" xmlns:xlink="http://www.w3.org/1999/xlink" height="157pt" style="width:116px;height:157px;" version="1.1" viewBox="0 0 116 157" width="116pt"><defs><filter height="300%" id="f1" width="300%" x="-1" y="-1"><feGaussianBlur result="blurOut" stdDeviation="2.0"/><feColorMatrix in="blurOut" result="blurOut2" type="matrix" values="0 0 0 0 0 0 0 0 0 0 0 0 0 0 0 0 0 0 .4 0"/><feOffset dx="4.0" dy="4.0" in="blurOut2" result="blurOut3"/><feBlend in="SourceGraphic" in2="blurOut3" mode="normal"/></filter></defs><g><rect fill="#FEFECE" filter="url(#f1)" height="40" style="stroke: #A80036; stroke-width: 1.5;" width="89" x="12" y="108"/><ellipse cx="27" cy="124" fill="#B4A7E5" rx="11" ry="11" style="stroke: #A80036; stroke-width: 1.0;"/><path d="M23.0156,130 L23.0156,128.3594 L25.8906,128.3594 L25.8906,119.3438 L23.0156,119.3438 L23.0156,117.7188 L31.2188,117.7188 L31.2188,119.3438 L28.3438,119.3438 L28.3438,128.3594 L31.2188,128.3594 L31.2188,130 L23.0156,130 Z "/><text fill="#000000" font-family="sans-serif" font-size="12" font-style="italic" lengthAdjust="spacingAndGlyphs" textLength="57" x="41" y="128.4209">Prediction</text><line style="stroke: #A80036; stroke-width: 1.5;" x1="13" x2="100" y1="140" y2="140"/><rect fill="#FEFECE" filter="url(#f1)" height="40" style="stroke: #A80036; stroke-width: 1.5;" width="101" x="6" y="8"/><ellipse cx="21" cy="24" fill="#B4A7E5" rx="11" ry="11" style="stroke: #A80036; stroke-width: 1.0;"/><path d="M17.0156,30 L17.0156,28.3594 L19.8906,28.3594 L19.8906,19.3438 L17.0156,19.3438 L17.0156,17.7188 L25.2188,17.7188 L25.2188,19.3438 L22.3438,19.3438 L22.3438,28.3594 L25.2188,28.3594 L25.2188,30 L17.0156,30 Z "/><text fill="#000000" font-family="sans-serif" font-size="12" font-style="italic" lengthAdjust="spacingAndGlyphs" textLength="69" x="35" y="28.4209">Observation</text><line style="stroke: #A80036; stroke-width: 1.5;" x1="7" x2="106" y1="40" y2="40"/><path d="M56.5,68.692 C56.5,82.1338 56.5,96.5458 56.5,107.6786 " fill="none" style="stroke: #A80036; stroke-width: 1.0;"/><polygon fill="none" points="49.5001,68.3617,56.5,48.3616,63.5001,68.3616,49.5001,68.3617" style="stroke: #A80036; stroke-width: 1.0;"/></g></svg>