<?xml version="1.0" encoding="UTF-8" standalone="yes"?><svg xmlns="http://www.w3.org/2000/svg" xmlns:xlink="http://www.w3.org/1999/xlink" height="154pt" style="width:640px;height:154px;" version="1.1" viewBox="0 0 640 154" width="640pt"><defs><filter height="300%" id="f1" width="300%" x="-1" y="-1"><feGaussianBlur result="blurOut" stdDeviation="2.0"/><feColorMatrix in="blurOut" result="blurOut2" type="matrix" values="0 0 0 0 0 0 0 0 0 0 0 0 0 0 0 0 0 0 .4 0"/><feOffset dx="4.0" dy="4.0" in="blurOut2" result="blurOut3"/><feBlend in="SourceGraphic" in2="blurOut3" mode="normal"/></filter></defs><g><rect fill="#FEFECE" filter="url(#f1)" height="137.5952" style="stroke: #A80036; stroke-width: 1.5;" width="625" x="6" y="8"/><ellipse cx="291.25" cy="24" fill="#ADD1B2" rx="11" ry="11" style="stroke: #A80036; stroke-width: 1.0;"/><path d="M295.0781,29.6563 Q293.2031,30.3125 291.3906,30.3125 Q288.7969,30.3125 287.2109,28.5313 Q285.625,26.75 285.625,23.8438 Q285.625,21.1563 287.0313,19.3906 Q287.8906,18.3125 289.0078,17.8594 Q290.125,17.4063 291.9063,17.4063 Q293.625,17.4063 295.0781,17.7656 L295.0781,19.75 Q293.2031,19.0469 291.9531,19.0469 Q290.2656,19.0469 289.2734,20.3672 Q288.2813,21.6875 288.2813,23.9219 Q288.2813,25.9688 289.3203,27.2656 Q290.3594,28.5625 292,28.5625 Q293.3906,28.5625 295.0781,27.7813 L295.0781,29.6563 Z "/><text fill="#000000" font-family="sans-serif" font-size="12" lengthAdjust="spacingAndGlyphs" textLength="46" x="311.75" y="28.4209">Relation</text><line style="stroke: #A80036; stroke-width: 1.5;" x1="7" x2="630" y1="40" y2="40"/><rect fill="none" height="6" style="stroke: #C82930; stroke-width: 1.0;" width="6" x="14" y="48.8997"/><text fill="#000000" font-family="sans-serif" font-size="11" lengthAdjust="spacingAndGlyphs" textLength="118" x="26" y="54.4521">type                   : String</text><rect fill="none" height="6" style="stroke: #C82930; stroke-width: 1.0;" width="6" x="14" y="61.699"/><text fill="#000000" font-family="sans-serif" font-size="11" lengthAdjust="spacingAndGlyphs" textLength="148" x="26" y="67.2515">objectIdReferred       : String</text><rect fill="none" height="6" style="stroke: #C82930; stroke-width: 1.0;" width="6" x="14" y="74.4983"/><text fill="#000000" font-family="sans-serif" font-size="11" lengthAdjust="spacingAndGlyphs" textLength="143" x="26" y="80.0508">objectIdLinked         : String</text><line style="stroke: #A80036; stroke-width: 1.5;" x1="7" x2="630" y1="86.3979" y2="86.3979"/><ellipse cx="17" cy="98.2976" fill="#84BE84" rx="3" ry="3" style="stroke: #038048; stroke-width: 1.0;"/><text fill="#000000" font-family="sans-serif" font-size="11" lengthAdjust="spacingAndGlyphs" textLength="599" x="26" y="100.8501">Relation(@NotNull final String type, @NotNull final String objectIdReferred, @NotNull final String objectIdLinked) {</text><ellipse cx="17" cy="111.0969" fill="#84BE84" rx="3" ry="3" style="stroke: #038048; stroke-width: 1.0;"/><text fill="#000000" font-family="sans-serif" font-size="11" lengthAdjust="spacingAndGlyphs" textLength="131" x="26" y="113.6494">getType()              : String</text><ellipse cx="17" cy="123.8962" fill="#84BE84" rx="3" ry="3" style="stroke: #038048; stroke-width: 1.0;"/><text fill="#000000" font-family="sans-serif" font-size="11" lengthAdjust="spacingAndGlyphs" textLength="160" x="26" y="126.4487">getObjectIdReferred()  : String</text><ellipse cx="17" cy="136.6956" fill="#84BE84" rx="3" ry="3" style="stroke: #038048; stroke-width: 1.0;"/><text fill="#000000" font-family="sans-serif" font-size="11" lengthAdjust="spacingAndGlyphs" textLength="155" x="26" y="139.248">getObjectIdLinked()    : String</text></g></svg>