<?xml version="1.0" encoding="UTF-8" standalone="yes"?><svg xmlns="http://www.w3.org/2000/svg" xmlns:xlink="http://www.w3.org/1999/xlink" height="65pt" style="width:121px;height:65px;" version="1.1" viewBox="0 0 121 65" width="121pt"><defs><filter height="300%" id="f1" width="300%" x="-1" y="-1"><feGaussianBlur result="blurOut" stdDeviation="2.0"/><feColorMatrix in="blurOut" result="blurOut2" type="matrix" values="0 0 0 0 0 0 0 0 0 0 0 0 0 0 0 0 0 0 .4 0"/><feOffset dx="4.0" dy="4.0" in="blurOut2" result="blurOut3"/><feBlend in="SourceGraphic" in2="blurOut3" mode="normal"/></filter></defs><g><rect fill="#FEFECE" filter="url(#f1)" height="48" style="stroke: #A80036; stroke-width: 1.5;" width="106" x="6" y="8"/><ellipse cx="21" cy="24" fill="#ADD1B2" rx="11" ry="11" style="stroke: #A80036; stroke-width: 1.0;"/><path d="M24.8281,29.6563 Q22.9531,30.3125 21.1406,30.3125 Q18.5469,30.3125 16.9609,28.5313 Q15.375,26.75 15.375,23.8438 Q15.375,21.1563 16.7813,19.3906 Q17.6406,18.3125 18.7578,17.8594 Q19.875,17.4063 21.6563,17.4063 Q23.375,17.4063 24.8281,17.7656 L24.8281,19.75 Q22.9531,19.0469 21.7031,19.0469 Q20.0156,19.0469 19.0234,20.3672 Q18.0313,21.6875 18.0313,23.9219 Q18.0313,25.9688 19.0703,27.2656 Q20.1094,28.5625 21.75,28.5625 Q23.1406,28.5625 24.8281,27.7813 L24.8281,29.6563 Z "/><text fill="#000000" font-family="sans-serif" font-size="12" lengthAdjust="spacingAndGlyphs" textLength="74" x="35" y="28.4209">BioPrediction</text><line style="stroke: #A80036; stroke-width: 1.5;" x1="7" x2="111" y1="40" y2="40"/><line style="stroke: #A80036; stroke-width: 1.5;" x1="7" x2="111" y1="48" y2="48"/></g></svg>